<mxfile host="app.diagrams.net" modified="2020-11-06T09:03:45.908Z" agent="5.0 (Windows NT 10.0; Win64; x64) AppleWebKit/537.36 (KHTML, like Gecko) Chrome/86.0.4240.111 Safari/537.36 OPR/72.0.3815.186" etag="bbXxmaOWAnFxSvdoErTk" version="13.9.2" type="github">
  <diagram id="C5RBs43oDa-KdzZeNtuy" name="Page-1">
    <mxGraphModel dx="1164" dy="628" grid="1" gridSize="10" guides="1" tooltips="1" connect="1" arrows="1" fold="1" page="1" pageScale="1" pageWidth="827" pageHeight="1169" math="0" shadow="0">
      <root>
        <mxCell id="WIyWlLk6GJQsqaUBKTNV-0" />
        <mxCell id="WIyWlLk6GJQsqaUBKTNV-1" parent="WIyWlLk6GJQsqaUBKTNV-0" />
        <mxCell id="-Hu1vBY-3ujE2y7qejp1-30" value="&lt;p style=&quot;margin:0px;margin-top:10px;text-align:center;&quot;&gt;&amp;lt;&amp;lt;unit&amp;gt;&amp;gt;&lt;br/&gt;&lt;p style=&quot;margin:0px;margin-left:8px;text-align:center;&quot;&gt;{quantityKind = QuantityKind1}&lt;br/&gt;&lt;b&gt;Unit1&lt;/b&gt;&lt;/p&gt;" style="shape=rect;html=1;overflow=fill;whiteSpace=wrap;" vertex="1" parent="WIyWlLk6GJQsqaUBKTNV-1">
          <mxGeometry x="310" y="220" width="200" height="60" as="geometry" />
        </mxCell>
        <mxCell id="-Hu1vBY-3ujE2y7qejp1-31" value="&lt;p style=&quot;margin: 0px ; margin-top: 4px ; margin-left: 10px ; text-align: left&quot;&gt;&lt;b&gt;System Serwisu&lt;/b&gt;&lt;/p&gt;" style="html=1;strokeWidth=1;shape=mxgraph.sysml.package;html=1;overflow=fill;whiteSpace=wrap;labelX=113.4;" vertex="1" parent="WIyWlLk6GJQsqaUBKTNV-1">
          <mxGeometry x="10" y="10" width="1000" height="580" as="geometry" />
        </mxCell>
        <mxCell id="-Hu1vBY-3ujE2y7qejp1-32" value="Osoba" style="swimlane;fontStyle=1;align=center;verticalAlign=top;childLayout=stackLayout;horizontal=1;startSize=26;horizontalStack=0;resizeParent=1;resizeParentMax=0;resizeLast=0;collapsible=1;marginBottom=0;" vertex="1" parent="WIyWlLk6GJQsqaUBKTNV-1">
          <mxGeometry x="30" y="40" width="160" height="112" as="geometry" />
        </mxCell>
        <mxCell id="-Hu1vBY-3ujE2y7qejp1-33" value="+ imie: &#xa;+ nazwisko:&#xa;+ adres&#xa;+ telefon:" style="text;strokeColor=none;fillColor=none;align=left;verticalAlign=top;spacingLeft=4;spacingRight=4;overflow=hidden;rotatable=0;points=[[0,0.5],[1,0.5]];portConstraint=eastwest;" vertex="1" parent="-Hu1vBY-3ujE2y7qejp1-32">
          <mxGeometry y="26" width="160" height="74" as="geometry" />
        </mxCell>
        <mxCell id="-Hu1vBY-3ujE2y7qejp1-34" value="" style="line;strokeWidth=1;fillColor=none;align=left;verticalAlign=middle;spacingTop=-1;spacingLeft=3;spacingRight=3;rotatable=0;labelPosition=right;points=[];portConstraint=eastwest;" vertex="1" parent="-Hu1vBY-3ujE2y7qejp1-32">
          <mxGeometry y="100" width="160" height="12" as="geometry" />
        </mxCell>
        <mxCell id="-Hu1vBY-3ujE2y7qejp1-35" value="Serwisant" style="swimlane;fontStyle=1;align=center;verticalAlign=top;childLayout=stackLayout;horizontal=1;startSize=26;horizontalStack=0;resizeParent=1;resizeParentMax=0;resizeLast=0;collapsible=1;marginBottom=0;" vertex="1" parent="WIyWlLk6GJQsqaUBKTNV-1">
          <mxGeometry x="270" y="240" width="160" height="70" as="geometry" />
        </mxCell>
        <mxCell id="-Hu1vBY-3ujE2y7qejp1-36" value="+ dataUrodzenia:" style="text;strokeColor=none;fillColor=none;align=left;verticalAlign=top;spacingLeft=4;spacingRight=4;overflow=hidden;rotatable=0;points=[[0,0.5],[1,0.5]];portConstraint=eastwest;" vertex="1" parent="-Hu1vBY-3ujE2y7qejp1-35">
          <mxGeometry y="26" width="160" height="26" as="geometry" />
        </mxCell>
        <mxCell id="-Hu1vBY-3ujE2y7qejp1-37" value="" style="line;strokeWidth=1;fillColor=none;align=left;verticalAlign=middle;spacingTop=-1;spacingLeft=3;spacingRight=3;rotatable=0;labelPosition=right;points=[];portConstraint=eastwest;" vertex="1" parent="-Hu1vBY-3ujE2y7qejp1-35">
          <mxGeometry y="52" width="160" height="18" as="geometry" />
        </mxCell>
        <mxCell id="-Hu1vBY-3ujE2y7qejp1-38" value="Samochód" style="swimlane;fontStyle=1;align=center;verticalAlign=top;childLayout=stackLayout;horizontal=1;startSize=26;horizontalStack=0;resizeParent=1;resizeParentMax=0;resizeLast=0;collapsible=1;marginBottom=0;" vertex="1" parent="WIyWlLk6GJQsqaUBKTNV-1">
          <mxGeometry x="610" y="32" width="160" height="128" as="geometry" />
        </mxCell>
        <mxCell id="-Hu1vBY-3ujE2y7qejp1-39" value="+ marka&#xa;+ nrRejestracyjny:&#xa;+ typ:&#xa;+ pojemność:&#xa;+ przebieg:" style="text;strokeColor=none;fillColor=none;align=left;verticalAlign=top;spacingLeft=4;spacingRight=4;overflow=hidden;rotatable=0;points=[[0,0.5],[1,0.5]];portConstraint=eastwest;" vertex="1" parent="-Hu1vBY-3ujE2y7qejp1-38">
          <mxGeometry y="26" width="160" height="84" as="geometry" />
        </mxCell>
        <mxCell id="-Hu1vBY-3ujE2y7qejp1-40" value="" style="line;strokeWidth=1;fillColor=none;align=left;verticalAlign=middle;spacingTop=-1;spacingLeft=3;spacingRight=3;rotatable=0;labelPosition=right;points=[];portConstraint=eastwest;" vertex="1" parent="-Hu1vBY-3ujE2y7qejp1-38">
          <mxGeometry y="110" width="160" height="18" as="geometry" />
        </mxCell>
        <mxCell id="-Hu1vBY-3ujE2y7qejp1-41" value="Strefa" style="swimlane;fontStyle=1;align=center;verticalAlign=top;childLayout=stackLayout;horizontal=1;startSize=26;horizontalStack=0;resizeParent=1;resizeParentMax=0;resizeLast=0;collapsible=1;marginBottom=0;" vertex="1" parent="WIyWlLk6GJQsqaUBKTNV-1">
          <mxGeometry x="827" y="240" width="160" height="90" as="geometry" />
        </mxCell>
        <mxCell id="-Hu1vBY-3ujE2y7qejp1-42" value="+ nazwaStrefy:&#xa;+ wielkośćOpłat:" style="text;strokeColor=none;fillColor=none;align=left;verticalAlign=top;spacingLeft=4;spacingRight=4;overflow=hidden;rotatable=0;points=[[0,0.5],[1,0.5]];portConstraint=eastwest;" vertex="1" parent="-Hu1vBY-3ujE2y7qejp1-41">
          <mxGeometry y="26" width="160" height="44" as="geometry" />
        </mxCell>
        <mxCell id="-Hu1vBY-3ujE2y7qejp1-43" value="" style="line;strokeWidth=1;fillColor=none;align=left;verticalAlign=middle;spacingTop=-1;spacingLeft=3;spacingRight=3;rotatable=0;labelPosition=right;points=[];portConstraint=eastwest;" vertex="1" parent="-Hu1vBY-3ujE2y7qejp1-41">
          <mxGeometry y="70" width="160" height="20" as="geometry" />
        </mxCell>
        <mxCell id="-Hu1vBY-3ujE2y7qejp1-44" value="Rejon" style="swimlane;fontStyle=1;align=center;verticalAlign=top;childLayout=stackLayout;horizontal=1;startSize=26;horizontalStack=0;resizeParent=1;resizeParentMax=0;resizeLast=0;collapsible=1;marginBottom=0;" vertex="1" parent="WIyWlLk6GJQsqaUBKTNV-1">
          <mxGeometry x="570" y="240" width="160" height="80" as="geometry" />
        </mxCell>
        <mxCell id="-Hu1vBY-3ujE2y7qejp1-45" value="+ nazwaRejonu:" style="text;strokeColor=none;fillColor=none;align=left;verticalAlign=top;spacingLeft=4;spacingRight=4;overflow=hidden;rotatable=0;points=[[0,0.5],[1,0.5]];portConstraint=eastwest;" vertex="1" parent="-Hu1vBY-3ujE2y7qejp1-44">
          <mxGeometry y="26" width="160" height="26" as="geometry" />
        </mxCell>
        <mxCell id="-Hu1vBY-3ujE2y7qejp1-46" value="" style="line;strokeWidth=1;fillColor=none;align=left;verticalAlign=middle;spacingTop=-1;spacingLeft=3;spacingRight=3;rotatable=0;labelPosition=right;points=[];portConstraint=eastwest;" vertex="1" parent="-Hu1vBY-3ujE2y7qejp1-44">
          <mxGeometry y="52" width="160" height="28" as="geometry" />
        </mxCell>
        <mxCell id="-Hu1vBY-3ujE2y7qejp1-47" value="Ulica" style="swimlane;fontStyle=1;align=center;verticalAlign=top;childLayout=stackLayout;horizontal=1;startSize=26;horizontalStack=0;resizeParent=1;resizeParentMax=0;resizeLast=0;collapsible=1;marginBottom=0;" vertex="1" parent="WIyWlLk6GJQsqaUBKTNV-1">
          <mxGeometry x="625" y="390" width="130" height="70" as="geometry" />
        </mxCell>
        <mxCell id="-Hu1vBY-3ujE2y7qejp1-48" value="+ nazwaUlicy:" style="text;strokeColor=none;fillColor=none;align=left;verticalAlign=top;spacingLeft=4;spacingRight=4;overflow=hidden;rotatable=0;points=[[0,0.5],[1,0.5]];portConstraint=eastwest;" vertex="1" parent="-Hu1vBY-3ujE2y7qejp1-47">
          <mxGeometry y="26" width="130" height="26" as="geometry" />
        </mxCell>
        <mxCell id="-Hu1vBY-3ujE2y7qejp1-49" value="" style="line;strokeWidth=1;fillColor=none;align=left;verticalAlign=middle;spacingTop=-1;spacingLeft=3;spacingRight=3;rotatable=0;labelPosition=right;points=[];portConstraint=eastwest;" vertex="1" parent="-Hu1vBY-3ujE2y7qejp1-47">
          <mxGeometry y="52" width="130" height="18" as="geometry" />
        </mxCell>
        <mxCell id="-Hu1vBY-3ujE2y7qejp1-50" value="Zgłoszenie" style="swimlane;fontStyle=1;align=center;verticalAlign=top;childLayout=stackLayout;horizontal=1;startSize=26;horizontalStack=0;resizeParent=1;resizeParentMax=0;resizeLast=0;collapsible=1;marginBottom=0;" vertex="1" parent="WIyWlLk6GJQsqaUBKTNV-1">
          <mxGeometry x="140" y="430" width="190" height="100" as="geometry" />
        </mxCell>
        <mxCell id="-Hu1vBY-3ujE2y7qejp1-51" value="+ dataPrzyjęciaZgłoszenia:&#xa;+ godzinaPrzyjęciaZgłoszenia:" style="text;strokeColor=none;fillColor=none;align=left;verticalAlign=top;spacingLeft=4;spacingRight=4;overflow=hidden;rotatable=0;points=[[0,0.5],[1,0.5]];portConstraint=eastwest;" vertex="1" parent="-Hu1vBY-3ujE2y7qejp1-50">
          <mxGeometry y="26" width="190" height="54" as="geometry" />
        </mxCell>
        <mxCell id="-Hu1vBY-3ujE2y7qejp1-52" value="" style="line;strokeWidth=1;fillColor=none;align=left;verticalAlign=middle;spacingTop=-1;spacingLeft=3;spacingRight=3;rotatable=0;labelPosition=right;points=[];portConstraint=eastwest;" vertex="1" parent="-Hu1vBY-3ujE2y7qejp1-50">
          <mxGeometry y="80" width="190" height="20" as="geometry" />
        </mxCell>
        <mxCell id="-Hu1vBY-3ujE2y7qejp1-53" value="" style="edgeStyle=none;html=1;endSize=12;endArrow=block;endFill=0;exitX=0.5;exitY=0;exitDx=0;exitDy=0;entryX=0.5;entryY=1;entryDx=0;entryDy=0;" edge="1" parent="WIyWlLk6GJQsqaUBKTNV-1" target="-Hu1vBY-3ujE2y7qejp1-32">
          <mxGeometry width="160" relative="1" as="geometry">
            <mxPoint x="110" y="240" as="sourcePoint" />
            <mxPoint x="310" y="220" as="targetPoint" />
          </mxGeometry>
        </mxCell>
        <mxCell id="-Hu1vBY-3ujE2y7qejp1-54" value="" style="edgeStyle=none;html=1;endSize=12;endArrow=block;endFill=0;entryX=1;entryY=1;entryDx=0;entryDy=0;exitX=0.5;exitY=0;exitDx=0;exitDy=0;" edge="1" parent="WIyWlLk6GJQsqaUBKTNV-1" source="-Hu1vBY-3ujE2y7qejp1-35" target="-Hu1vBY-3ujE2y7qejp1-32">
          <mxGeometry width="160" relative="1" as="geometry">
            <mxPoint x="160" y="229.9999999999999" as="sourcePoint" />
            <mxPoint x="319.9999999999998" y="229.9999999999999" as="targetPoint" />
          </mxGeometry>
        </mxCell>
        <mxCell id="-Hu1vBY-3ujE2y7qejp1-55" value="" style="verticalAlign=bottom;html=1;endArrow=none;startArrow=none;startSize=14;startFill=0;edgeStyle=orthogonalEdgeStyle;exitX=1;exitY=0.5;exitDx=0;exitDy=0;entryX=0;entryY=0.5;entryDx=0;entryDy=0;" edge="1" parent="WIyWlLk6GJQsqaUBKTNV-1" source="-Hu1vBY-3ujE2y7qejp1-36" target="-Hu1vBY-3ujE2y7qejp1-45">
          <mxGeometry relative="1" as="geometry">
            <mxPoint x="430" y="340" as="sourcePoint" />
            <mxPoint x="590" y="340" as="targetPoint" />
          </mxGeometry>
        </mxCell>
        <mxCell id="-Hu1vBY-3ujE2y7qejp1-56" value="" style="resizable=0;html=1;align=right;verticalAlign=bottom;labelBackgroundColor=none;fontSize=10" connectable="0" vertex="1" parent="-Hu1vBY-3ujE2y7qejp1-55">
          <mxGeometry x="1" relative="1" as="geometry" />
        </mxCell>
        <mxCell id="-Hu1vBY-3ujE2y7qejp1-57" value="" style="resizable=0;html=1;align=right;verticalAlign=top;labelBackgroundColor=none;fontSize=10" connectable="0" vertex="1" parent="-Hu1vBY-3ujE2y7qejp1-55">
          <mxGeometry x="1" relative="1" as="geometry" />
        </mxCell>
        <mxCell id="-Hu1vBY-3ujE2y7qejp1-58" value="obsługuje" style="edgeLabel;html=1;align=center;verticalAlign=middle;resizable=0;points=[];" vertex="1" connectable="0" parent="-Hu1vBY-3ujE2y7qejp1-55">
          <mxGeometry x="-0.2454" y="2" relative="1" as="geometry">
            <mxPoint x="16.9" y="-7" as="offset" />
          </mxGeometry>
        </mxCell>
        <mxCell id="-Hu1vBY-3ujE2y7qejp1-77" value="1..*" style="edgeLabel;html=1;align=center;verticalAlign=middle;resizable=0;points=[];" vertex="1" connectable="0" parent="-Hu1vBY-3ujE2y7qejp1-55">
          <mxGeometry x="-0.8621" y="1" relative="1" as="geometry">
            <mxPoint y="12" as="offset" />
          </mxGeometry>
        </mxCell>
        <mxCell id="-Hu1vBY-3ujE2y7qejp1-78" value="2..*" style="edgeLabel;html=1;align=center;verticalAlign=middle;resizable=0;points=[];" vertex="1" connectable="0" parent="-Hu1vBY-3ujE2y7qejp1-55">
          <mxGeometry x="0.9066" y="2" relative="1" as="geometry">
            <mxPoint x="-3.33" y="13" as="offset" />
          </mxGeometry>
        </mxCell>
        <mxCell id="-Hu1vBY-3ujE2y7qejp1-59" value="" style="endArrow=none;html=1;exitX=0.75;exitY=0;exitDx=0;exitDy=0;entryX=0;entryY=0.5;entryDx=0;entryDy=0;" edge="1" parent="WIyWlLk6GJQsqaUBKTNV-1" source="-Hu1vBY-3ujE2y7qejp1-35" target="-Hu1vBY-3ujE2y7qejp1-39">
          <mxGeometry width="50" height="50" relative="1" as="geometry">
            <mxPoint x="430" y="240" as="sourcePoint" />
            <mxPoint x="480" y="190" as="targetPoint" />
            <Array as="points">
              <mxPoint x="390" y="100" />
            </Array>
          </mxGeometry>
        </mxCell>
        <mxCell id="-Hu1vBY-3ujE2y7qejp1-60" value="korzysta&amp;nbsp;" style="edgeLabel;html=1;align=center;verticalAlign=middle;resizable=0;points=[];" vertex="1" connectable="0" parent="-Hu1vBY-3ujE2y7qejp1-59">
          <mxGeometry x="0.3174" y="3" relative="1" as="geometry">
            <mxPoint y="-7" as="offset" />
          </mxGeometry>
        </mxCell>
        <mxCell id="-Hu1vBY-3ujE2y7qejp1-61" value="1" style="edgeLabel;html=1;align=center;verticalAlign=middle;resizable=0;points=[];" vertex="1" connectable="0" parent="-Hu1vBY-3ujE2y7qejp1-59">
          <mxGeometry x="0.9331" y="2" relative="1" as="geometry">
            <mxPoint y="12" as="offset" />
          </mxGeometry>
        </mxCell>
        <mxCell id="-Hu1vBY-3ujE2y7qejp1-62" value="0..3" style="edgeLabel;html=1;align=center;verticalAlign=middle;resizable=0;points=[];" vertex="1" connectable="0" parent="-Hu1vBY-3ujE2y7qejp1-59">
          <mxGeometry x="-0.9201" y="-3" relative="1" as="geometry">
            <mxPoint x="7" as="offset" />
          </mxGeometry>
        </mxCell>
        <mxCell id="-Hu1vBY-3ujE2y7qejp1-63" value="" style="endArrow=none;html=1;exitX=0.5;exitY=0;exitDx=0;exitDy=0;entryX=0.75;entryY=1;entryDx=0;entryDy=0;" edge="1" parent="WIyWlLk6GJQsqaUBKTNV-1" source="-Hu1vBY-3ujE2y7qejp1-47" target="-Hu1vBY-3ujE2y7qejp1-44">
          <mxGeometry width="50" height="50" relative="1" as="geometry">
            <mxPoint x="610" y="360" as="sourcePoint" />
            <mxPoint x="660" y="310" as="targetPoint" />
          </mxGeometry>
        </mxCell>
        <mxCell id="-Hu1vBY-3ujE2y7qejp1-84" value="1..*" style="edgeLabel;html=1;align=center;verticalAlign=middle;resizable=0;points=[];" vertex="1" connectable="0" parent="-Hu1vBY-3ujE2y7qejp1-63">
          <mxGeometry x="0.7206" relative="1" as="geometry">
            <mxPoint x="10" y="0.4" as="offset" />
          </mxGeometry>
        </mxCell>
        <mxCell id="-Hu1vBY-3ujE2y7qejp1-85" value="1..*" style="edgeLabel;html=1;align=center;verticalAlign=middle;resizable=0;points=[];" vertex="1" connectable="0" parent="-Hu1vBY-3ujE2y7qejp1-63">
          <mxGeometry x="0.7206" relative="1" as="geometry">
            <mxPoint x="10" y="50.4" as="offset" />
          </mxGeometry>
        </mxCell>
        <mxCell id="-Hu1vBY-3ujE2y7qejp1-86" value="1..*" style="edgeLabel;html=1;align=center;verticalAlign=middle;resizable=0;points=[];" vertex="1" connectable="0" parent="-Hu1vBY-3ujE2y7qejp1-63">
          <mxGeometry x="0.7206" relative="1" as="geometry">
            <mxPoint x="-440" y="210" as="offset" />
          </mxGeometry>
        </mxCell>
        <mxCell id="-Hu1vBY-3ujE2y7qejp1-64" value="" style="endArrow=none;html=1;entryX=0.5;entryY=1;entryDx=0;entryDy=0;exitX=0;exitY=0.5;exitDx=0;exitDy=0;" edge="1" parent="WIyWlLk6GJQsqaUBKTNV-1" source="-Hu1vBY-3ujE2y7qejp1-51" target="-Hu1vBY-3ujE2y7qejp1-74">
          <mxGeometry width="50" height="50" relative="1" as="geometry">
            <mxPoint x="80" y="420" as="sourcePoint" />
            <mxPoint x="110" y="340" as="targetPoint" />
            <Array as="points">
              <mxPoint x="110" y="483" />
            </Array>
          </mxGeometry>
        </mxCell>
        <mxCell id="-Hu1vBY-3ujE2y7qejp1-65" value="1" style="edgeLabel;html=1;align=center;verticalAlign=middle;resizable=0;points=[];" vertex="1" connectable="0" parent="-Hu1vBY-3ujE2y7qejp1-64">
          <mxGeometry x="0.8709" relative="1" as="geometry">
            <mxPoint x="10" y="-2.14" as="offset" />
          </mxGeometry>
        </mxCell>
        <mxCell id="-Hu1vBY-3ujE2y7qejp1-66" value="1..*" style="edgeLabel;html=1;align=center;verticalAlign=middle;resizable=0;points=[];" vertex="1" connectable="0" parent="-Hu1vBY-3ujE2y7qejp1-64">
          <mxGeometry x="-0.9043" relative="1" as="geometry">
            <mxPoint x="-1.11" y="12" as="offset" />
          </mxGeometry>
        </mxCell>
        <mxCell id="-Hu1vBY-3ujE2y7qejp1-67" value="" style="endArrow=none;html=1;entryX=0.5;entryY=1;entryDx=0;entryDy=0;exitX=1;exitY=0.5;exitDx=0;exitDy=0;" edge="1" parent="WIyWlLk6GJQsqaUBKTNV-1" source="-Hu1vBY-3ujE2y7qejp1-51" target="-Hu1vBY-3ujE2y7qejp1-35">
          <mxGeometry width="50" height="50" relative="1" as="geometry">
            <mxPoint x="300" y="400" as="sourcePoint" />
            <mxPoint x="350" y="350" as="targetPoint" />
            <Array as="points">
              <mxPoint x="350" y="483" />
            </Array>
          </mxGeometry>
        </mxCell>
        <mxCell id="-Hu1vBY-3ujE2y7qejp1-68" value="" style="swimlane;fontStyle=1;align=center;verticalAlign=top;childLayout=stackLayout;horizontal=1;startSize=26;horizontalStack=0;resizeParent=1;resizeParentMax=0;resizeLast=0;collapsible=1;marginBottom=0;" vertex="1" parent="WIyWlLk6GJQsqaUBKTNV-1">
          <mxGeometry x="400" y="330" width="140" height="130" as="geometry" />
        </mxCell>
        <mxCell id="-Hu1vBY-3ujE2y7qejp1-69" value="+ dataPrzypisania:&#xa;+ godzPrzypisania:&#xa;+ dataRealizacji:&#xa;+ godzRozpRealizacji:&#xa;+ godzZakRealizacji:" style="text;strokeColor=none;fillColor=none;align=left;verticalAlign=top;spacingLeft=4;spacingRight=4;overflow=hidden;rotatable=0;points=[[0,0.5],[1,0.5]];portConstraint=eastwest;" vertex="1" parent="-Hu1vBY-3ujE2y7qejp1-68">
          <mxGeometry y="26" width="140" height="84" as="geometry" />
        </mxCell>
        <mxCell id="-Hu1vBY-3ujE2y7qejp1-70" value="" style="line;strokeWidth=1;fillColor=none;align=left;verticalAlign=middle;spacingTop=-1;spacingLeft=3;spacingRight=3;rotatable=0;labelPosition=right;points=[];portConstraint=eastwest;" vertex="1" parent="-Hu1vBY-3ujE2y7qejp1-68">
          <mxGeometry y="110" width="140" height="20" as="geometry" />
        </mxCell>
        <mxCell id="-Hu1vBY-3ujE2y7qejp1-71" value="" style="endArrow=none;dashed=1;html=1;exitX=0;exitY=0.5;exitDx=0;exitDy=0;" edge="1" parent="WIyWlLk6GJQsqaUBKTNV-1" source="-Hu1vBY-3ujE2y7qejp1-69">
          <mxGeometry width="50" height="50" relative="1" as="geometry">
            <mxPoint x="410" y="440" as="sourcePoint" />
            <mxPoint x="350" y="398" as="targetPoint" />
          </mxGeometry>
        </mxCell>
        <mxCell id="-Hu1vBY-3ujE2y7qejp1-72" value="" style="endArrow=none;html=1;exitX=0.5;exitY=1;exitDx=0;exitDy=0;entryX=0.25;entryY=1;entryDx=0;entryDy=0;" edge="1" parent="WIyWlLk6GJQsqaUBKTNV-1" source="-Hu1vBY-3ujE2y7qejp1-50" target="-Hu1vBY-3ujE2y7qejp1-44">
          <mxGeometry width="50" height="50" relative="1" as="geometry">
            <mxPoint x="450" y="560" as="sourcePoint" />
            <mxPoint x="500" y="510" as="targetPoint" />
            <Array as="points">
              <mxPoint x="235" y="560" />
              <mxPoint x="610" y="560" />
            </Array>
          </mxGeometry>
        </mxCell>
        <mxCell id="-Hu1vBY-3ujE2y7qejp1-73" value="dotyczy&amp;nbsp;" style="edgeLabel;html=1;align=center;verticalAlign=middle;resizable=0;points=[];" vertex="1" connectable="0" parent="-Hu1vBY-3ujE2y7qejp1-72">
          <mxGeometry x="-0.4726" y="-1" relative="1" as="geometry">
            <mxPoint x="24.48" y="-11" as="offset" />
          </mxGeometry>
        </mxCell>
        <mxCell id="-Hu1vBY-3ujE2y7qejp1-87" value="*" style="edgeLabel;html=1;align=center;verticalAlign=middle;resizable=0;points=[];" vertex="1" connectable="0" parent="-Hu1vBY-3ujE2y7qejp1-72">
          <mxGeometry x="0.9635" y="1" relative="1" as="geometry">
            <mxPoint x="11" y="-1.67" as="offset" />
          </mxGeometry>
        </mxCell>
        <mxCell id="-Hu1vBY-3ujE2y7qejp1-74" value="Klient" style="swimlane;fontStyle=1;align=center;verticalAlign=top;childLayout=stackLayout;horizontal=1;startSize=26;horizontalStack=0;resizeParent=1;resizeParentMax=0;resizeLast=0;collapsible=1;marginBottom=0;" vertex="1" parent="WIyWlLk6GJQsqaUBKTNV-1">
          <mxGeometry x="30" y="240" width="160" height="70" as="geometry" />
        </mxCell>
        <mxCell id="-Hu1vBY-3ujE2y7qejp1-75" value="" style="line;strokeWidth=1;fillColor=none;align=left;verticalAlign=middle;spacingTop=-1;spacingLeft=3;spacingRight=3;rotatable=0;labelPosition=right;points=[];portConstraint=eastwest;" vertex="1" parent="-Hu1vBY-3ujE2y7qejp1-74">
          <mxGeometry y="26" width="160" height="44" as="geometry" />
        </mxCell>
        <mxCell id="-Hu1vBY-3ujE2y7qejp1-76" value="" style="endArrow=none;html=1;entryX=1;entryY=0.5;entryDx=0;entryDy=0;exitX=0.001;exitY=0.308;exitDx=0;exitDy=0;exitPerimeter=0;" edge="1" parent="WIyWlLk6GJQsqaUBKTNV-1" source="-Hu1vBY-3ujE2y7qejp1-42" target="-Hu1vBY-3ujE2y7qejp1-45">
          <mxGeometry width="50" height="50" relative="1" as="geometry">
            <mxPoint x="720" y="250" as="sourcePoint" />
            <mxPoint x="770" y="200" as="targetPoint" />
          </mxGeometry>
        </mxCell>
        <mxCell id="-Hu1vBY-3ujE2y7qejp1-79" value="1" style="edgeLabel;html=1;align=center;verticalAlign=middle;resizable=0;points=[];" vertex="1" connectable="0" parent="-Hu1vBY-3ujE2y7qejp1-76">
          <mxGeometry x="0.8057" relative="1" as="geometry">
            <mxPoint y="10.95" as="offset" />
          </mxGeometry>
        </mxCell>
        <mxCell id="-Hu1vBY-3ujE2y7qejp1-80" value="1..*" style="edgeLabel;html=1;align=center;verticalAlign=middle;resizable=0;points=[];" vertex="1" connectable="0" parent="-Hu1vBY-3ujE2y7qejp1-76">
          <mxGeometry x="-0.779" relative="1" as="geometry">
            <mxPoint y="10.51" as="offset" />
          </mxGeometry>
        </mxCell>
      </root>
    </mxGraphModel>
  </diagram>
</mxfile>
